<svg xmlns="http://www.w3.org/2000/svg" viewBox="0 0 458.867 458.867" width="512" height="512"><path d="M404.75.027H55.731C25.664.027 0 28.27 0 58.245V407.49c0 29.965 25.664 51.351 55.731 51.351H404.75c30.066 0 54.117-21.386 54.117-51.351V58.245c0-29.975-24.051-58.218-54.117-58.218zM393.955 65.57c8.699 0 15.752 7.053 15.752 15.752v50.436c0 8.699-7.053 15.752-15.752 15.752h-50.443c-8.699 0-15.752-7.053-15.752-15.752V81.322c0-8.699 7.053-15.752 15.752-15.752h50.443zm-163.184 79.999c48.631 0 88.05 39.334 88.05 87.832 0 48.506-39.419 87.839-88.05 87.839-48.622 0-88.05-39.333-88.05-87.839 0-48.498 39.427-87.832 88.05-87.832zm178.936 250.207c0 7.046-7.489 13.912-14.559 13.912H66.407c-7.067 0-17.246-6.866-17.246-13.912V196.663h47.282c-3.219 16.391-4.956 24.035-4.956 36.738 0 76.617 62.479 138.934 139.283 138.934 76.811 0 139.292-62.332 139.292-138.949 0-12.688-1.738-20.332-4.941-36.723h44.586v199.113z" fill="#919191"/></svg>